<?xml version="1.0" encoding="UTF-8"?>
<svg id="Ebene_1" data-name="Ebene 1" xmlns="http://www.w3.org/2000/svg" viewBox="0 0 1148.44 255.62">
  <defs>
    <style>
      .cls-1 {
        fill: #fff;
      }
    </style>
  </defs>
  <path class="cls-1" d="M58.95,114.52l-.28,85.39c0,1.67,1.43,3.05,3.06,3.05h76.39c1.62.01,3.58-.51,3.58-2.57V2.6c-.3-1.8-1.35-2.6-3.07-2.6h-74.03S7.23,48.42,7.23,48.42l-6.04,5.19c-.51.64-1.08,1.84-1.18,2.59-.09.69.98,2.3,1.7,2.3l32.78.25,23.25.25c.65,0,1.42,1.85,1.41,2.52l-.19,53.01ZM357.2,118.83c0-1.12,1.1-2.4,1.91-2.4l43.58.02c1.24,0,3.96-.92,3.96-2.52l.03-29.35c-.15-.79-1.84-2.41-2.63-2.55h-45.32c-.78-.52-1.52-1.65-1.52-2.51l.03-27.55c.49-1-.12-3.96-1.6-3.96h-44.43c-.88-.01-2,2.2-2,3.19l-.04,148.19c0,1.96,1.69,3.59,3.55,3.59h90.38c1.1,0,3.54-1.38,3.54-2.43l.02-30.57c0-.9-2.15-1.96-3.01-1.96l-44.95.02c-.73-.54-1.52-1.66-1.52-2.56v-46.64ZM289.35,197.81l-.06-5.42-.07-63.88c0-1.85-1.28-3.03-3.08-3.03l-69.42.02c-3.21,0-1.99-5.75-1.82-8.53l70.77-.02c1.52,0,3.93-1.29,3.93-3.02l.06-28.43c0-1.09-1.31-3.48-2.61-3.48l-116.81-.02c-1.9,0-4.12.8-4.12,3.03v70.36c0,1.64,1.52,3.1,3.11,3.1h70.78c1.74.22,1.57,8.36.01,9.02l-70.77.02c-1.77,0-3.16,1.3-3.16,2.89l.04,30.12c0,1.2,1.79,2.43,3.13,2.43l117.66-.03c2.28,0,2.45-3.65,2.43-5.13ZM681.2,170.2c0-1.26-1.42-2.68-2.67-2.68h-78.81c-.91,0-2.18-1.19-2.14-1.95l.32-7.07,80.65-.03c1.34,0,2.65-1.79,2.65-3.04v-70.43c0-2.22-2.17-3-4.11-3h-126.31c-1.17.38-3.03,2.39-3.03,3.49v19.48c0,.96.42,2.57.28,3.38-.42,2.45.04,4.32.04,6.74v77.78s-.09,5.69-.09,5.69c-.03,1.84.72,4.39,3.39,4.39h126.7c1.98.01,3.14-1.84,3.14-3.43v-29.33ZM477.96,116.44l47.23.02c.96,0,3.48-.82,3.48-1.99l.08-28.96c0-2.29-1.57-2.99-3.58-2.99l-45.44.04c-1.62,0-2.82.93-4.25,2.08l-2.06-1.63-18.55-.26-25.28-.24c-1.11-.01-2.94,1.72-2.94,3.05v114.81c.23.8,1.82,2.51,2.63,2.6l43.27-.07c2.51,0,3.24-3.69,3.16-5.28l-.43-8.63.09-36.47c0-3.46.03-6.6,0-10.04l-.17-23.5c0-1.31,1.08-2.54,2.75-2.54Z"/>
  <path d="M59.14,61.51c0-.67-.76-2.51-1.41-2.52l-56.02-.5c-.72,0-1.79-1.61-1.7-2.3.1-.75.67-1.94,1.18-2.59L64.59,0h74.03c1.72,0,2.78.8,3.08,2.6v197.8c-.01,2.06-1.98,2.58-3.59,2.58H61.73c-1.62-.01-3.06-1.4-3.06-3.06l.47-138.4Z"/>
  <path d="M681.2,170.2v29.33c0,1.59-1.15,3.44-3.13,3.44h-126.7c-2.67-.01-3.41-2.56-3.39-4.4l-.23-113.08c0-1.1,1.86-3.11,3.03-3.48h126.31c1.93-.01,4.1.77,4.1,2.99v70.43c0,1.25-1.3,3.04-2.65,3.04l-80.65.03-.32,7.07c-.03.75,1.23,1.94,2.14,1.94h78.81c1.24,0,2.67,1.43,2.67,2.69ZM600.92,125.52l28.2-.08c1.32-.57,1.84-6.38.84-7.93-.61-.94-2.07-.61-3.3-.61l-28.79.11c-.2,2.57-.24,5.07-.04,7.4.06.74,2.14,1.12,3.09,1.12Z"/>
  <path class="cls-1" d="M835.66,170.2c0-1.26-1.42-2.68-2.67-2.68h-78.81c-.91,0-2.18-1.19-2.14-1.95l.32-7.07,80.65-.03c1.34,0,2.65-1.79,2.65-3.04v-70.43c0-2.22-2.17-3-4.11-3h-126.31c-1.17.38-3.03,2.39-3.03,3.49v19.48c0,.96.42,2.57.28,3.38-.42,2.45.04,4.32.04,6.74v77.78s-.09,5.69-.09,5.69c-.03,1.84.72,4.39,3.39,4.39h126.7c1.98.01,3.14-1.84,3.14-3.43v-29.33Z"/>
  <path d="M835.66,170.2v29.33c0,1.59-1.15,3.44-3.13,3.44h-126.7c-2.67-.01-3.41-2.56-3.39-4.4l.08-5.69-.31-107.39c0-1.1,1.86-3.11,3.03-3.48h126.31c1.93-.01,4.1.77,4.1,2.99v70.43c0,1.25-1.3,3.04-2.65,3.04l-80.65.03-.32,7.07c-.03.75,1.23,1.94,2.14,1.94h78.81c1.24,0,2.67,1.43,2.67,2.69ZM755.38,125.52l28.2-.08c1.32-.57,1.84-6.38.84-7.93-.61-.94-2.07-.61-3.3-.61l-28.79.11c-.2,2.57-.24,5.07-.04,7.4.06.74,2.14,1.12,3.09,1.12Z"/>
  <path d="M289.35,197.81c.02,1.48-.15,5.13-2.43,5.13l-117.66.03c-1.34,0-3.13-1.23-3.13-2.43l-.04-30.12c0-1.59,1.39-2.89,3.16-2.89l70.77-.02c1.56-.67,1.73-8.8-.01-9.02h-70.78c-1.59,0-3.12-1.46-3.12-3.11v-70.36c0-2.23,2.23-3.03,4.13-3.03l116.81.02c1.3,0,2.62,2.39,2.61,3.48l-.06,28.43c0,1.73-2.42,3.02-3.93,3.02l-70.77.02c-.17,2.78-1.39,8.53,1.82,8.53l69.42-.02c1.8,0,3.08,1.18,3.08,3.03l.13,69.29Z"/>
  <path d="M357.2,118.83v46.64c0,.91.78,2.02,1.51,2.56l44.95-.02c.86,0,3.01,1.05,3.01,1.96l-.02,30.57c0,1.06-2.43,2.44-3.54,2.44h-90.38c-1.86,0-3.55-1.64-3.55-3.6l.04-148.19c0-.99,1.11-3.2,2-3.2h44.43c1.48.01,2.09,2.97,1.6,3.98l-.03,27.55c0,.86.74,1.99,1.52,2.5h45.32c.79.15,2.48,1.77,2.63,2.57l-.03,29.35c0,1.6-2.72,2.52-3.96,2.52l-43.58-.02c-.81,0-1.91,1.29-1.91,2.4Z"/>
  <path d="M477.96,116.44c-1.67,0-2.76,1.23-2.75,2.54l.51,78.64c.08,1.59-.66,5.28-3.16,5.28l-43.27.07c-.81-.09-2.4-1.8-2.64-2.6v-114.81c.01-1.33,1.84-3.06,2.95-3.05l43.83.49,2.06,1.63c1.43-1.15,2.62-2.08,4.25-2.08l45.44-.04c2.01,0,3.59.7,3.58,2.99l-.08,28.96c0,1.17-2.52,1.99-3.48,1.99l-47.23-.02Z"/>
  <rect x="1099.67" y="105.45" width="47" height="45.49" rx="5" ry="5"/>
  <rect x="860.87" y="105.45" width="47" height="45.49" rx="5" ry="5"/>
  <rect x="979.52" y="85.45" width="47" height="85.49" rx="5" ry="5"/>
  <rect x="919.45" y="54.98" width="47" height="147.99" rx="5" ry="5"/>
  <rect x="1039.59" y="54.98" width="47" height="147.99" rx="5" ry="5"/>
  <path d="M1141.9,217.4c8.14,0,8.96,11.89.9,13.02-72.95,10.2-258.08,22.98-274.96,24.82-1.81.2-3.62.3-5.44.3l-795.69.08c-3.67,0-7.42-2.03-7.66-6.45-.45-8.16-.26-16.59-.15-25.05.05-3.91,3.61-7.03,7.33-7,0,0,813.94.2,1075.68.28Z"/>
</svg>